PathFileType	4	(X/Y/Z)	/Users/itak/Documents/Research/Walk-IL/dataset/trc/00482_00167.trc
DataRate	CameraRate	NumFrames	NumMarkers	Units	OrigDataRate	OrigDataStartFrame	OrigNumFrames
100.000000	100.000000	4	53	mm	100.000000	276	552
Frame#	Time	RPSI			LPSI			L3			STRN			T10			C7			CLAV			RBAK			LBAK			LSHO			LUPA			LAEL			LAOL			LWTS			LWPS			LFRA			LIFD			LHPS			LHTS			RSHO			RUPA			RAEL			RAOL			RWTS			RWPS			RFRA			RIFD			RHTS			RHPS			RBHD			LFHD			RFHD			LBHD			LHIP			RHIP			RASI			LASI			LKNE			LTHI			LANK			LTIP			LTOE			LMT1			LMT5			LHEE			RKNE			RTHI			RANK			RTIP			RTOE			RMT1			RMT5			RHEE			
		X1	Y1	Z1	X2	Y2	Z2	X3	Y3	Z3	X4	Y4	Z4	X5	Y5	Z5	X6	Y6	Z6	X7	Y7	Z7	X8	Y8	Z8	X9	Y9	Z9	X10	Y10	Z10	X11	Y11	Z11	X12	Y12	Z12	X13	Y13	Z13	X14	Y14	Z14	X15	Y15	Z15	X16	Y16	Z16	X17	Y17	Z17	X18	Y18	Z18	X19	Y19	Z19	X20	Y20	Z20	X21	Y21	Z21	X22	Y22	Z22	X23	Y23	Z23	X24	Y24	Z24	X25	Y25	Z25	X26	Y26	Z26	X27	Y27	Z27	X28	Y28	Z28	X29	Y29	Z29	X30	Y30	Z30	X31	Y31	Z31	X32	Y32	Z32	X33	Y33	Z33	X34	Y34	Z34	X35	Y35	Z35	X36	Y36	Z36	X37	Y37	Z37	X38	Y38	Z38	X39	Y39	Z39	X40	Y40	Z40	X41	Y41	Z41	X42	Y42	Z42	X43	Y43	Z43	X44	Y44	Z44	X45	Y45	Z45	X46	Y46	Z46	X47	Y47	Z47	X48	Y48	Z48	X49	Y49	Z49	X50	Y50	Z50	X51	Y51	Z51	X52	Y52	Z52	X53	Y53	Z53	

277	2.76	351.5002746582031	1014.216552734375	-128.3184967041016	214.7155151367188	975.2118530273438	-133.9576721191406	281.5931396484375	1091.605712890625	-162.7344818115234	242.9642028808594	1246.76806640625	-463.1497802734375	258.0485229492188	1210.288208007812	-162.8351440429688	237.1407012939453	1467.0400390625	-261.5919189453125	223.2184143066406	1362.068725585938	-438.6938781738281	347.8521728515625	1366.775268554688	-193.6646270751953	146.4817352294922	1412.43115234375	-218.4970855712891	59.07845687866211	1419.935424804688	-316.2916870117188	-24.85139846801758	1293.356079101562	-286.07958984375	-15.64034938812256	1070.18359375	-290.1523742675781	44.49654769897461	1070.773315429688	-206.5086975097656	96.45233917236328	919.9688720703125	-400.5030212402344	59.97944641113281	872.6533203125	-355.5359497070312	7.613357543945312	989.1458129882812	-324.2960205078125	152.6476745605469	776.365234375	-441.6315002441406	93.52247619628906	805.8966064453125	-376.6711730957031	120.4947052001953	843.2513427734375	-432.3219299316406	392.4059753417969	1446.20361328125	-336.4730834960938	474.9117126464844	1399.823608398438	-318.6536865234375	592.9496459960938	1134.508422851562	-323.0790100097656	566.2103271484375	1106.826782226562	-266.4456787109375	546.024169921875	940.3515625	-444.3292846679688	620.5765380859375	924.7547607421875	-400.1815795898438	609.0143432617188	1078.595092773438	-337.3103332519531	563.1703491210938	789.198974609375	-474.583984375	558.4872436523438	849.490478515625	-477.1569519042969	618.7931518554688	841.0379028320312	-428.6954345703125	273.9143676757812	1666.703247070312	-412.4431457519531	74.66448211669922	1631.992431640625	-452.4923400878906	185.7568969726562	1654.480712890625	-517.4182739257812	130.596923828125	1643.298828125	-310.6468811035156	141.5772094726562	829.3692626953125	-261.8175048828125	522.9075317382812	941.055908203125	-223.3482360839844	454.9528503417969	947.6075439453125	-333.9331359863281	211.1347351074219	879.7395629882812	-363.691650390625	292.9250793457031	434.2540588378906	-297.6373901367188	220.7798156738281	572.04931640625	-310.2141418457031	406.82275390625	46.7120246887207	-195.1533660888672	325.9385986328125	285.53759765625	-282.5308532714844	518.2490844726562	47.14143753051758	-407.2765197753906	526.7112426757812	60.74577713012695	-330.3873901367188	421.2641906738281	41.14432907104492	-348.3629150390625	459.1452941894531	76.3248291015625	-145.1651611328125	636.7838745117188	573.306396484375	-207.5957641601562	575.3952026367188	816.083251953125	-253.3208618164062	680.624755859375	323.2071838378906	155.7157745361328	670.8486938476562	471.4510498046875	-105.8700561523438	672.6802368164062	125.3072662353516	67.19260406494141	625.9661865234375	179.1352386474609	83.40074157714844	724.57861328125	208.0092163085938	108.1355895996094	623.723876953125	368.8821716308594	183.4960479736328	
278	2.77	363.2796020507812	1016.412963867188	-133.9148712158203	226.375	977.8046264648438	-130.8519592285156	291.0326843261719	1093.039184570312	-164.6542510986328	239.5212554931641	1246.598754882812	-462.9118957519531	267.2054748535156	1210.843017578125	-163.6890869140625	242.8880310058594	1467.570678710938	-261.418212890625	221.7761535644531	1362.179565429688	-438.0294799804688	355.4407958984375	1366.760498046875	-198.1614074707031	153.701171875	1413.445922851562	-214.8387603759766	62.75321578979492	1421.02490234375	-309.2144470214844	-20.34476470947266	1294.681884765625	-275.9697265625	-10.95795631408691	1071.300903320312	-280.9804992675781	51.73814010620117	1071.753295898438	-199.3504486083984	98.66896057128906	922.2609252929688	-395.8397216796875	63.59959030151367	874.586669921875	-350.02099609375	11.50860404968262	990.5475463867188	-316.427001953125	154.0433197021484	779.1053466796875	-439.1462707519531	96.71726226806641	808.0574340820312	-372.53955078125	122.1381149291992	845.8279418945312	-428.8074645996094	394.9301147460938	1446.63232421875	-342.1337280273438	477.9573364257812	1400.509643554688	-326.5985717773438	596.0125122070312	1135.217895507812	-330.6834106445312	570.4267578125	1108.366333007812	-273.1498107910156	547.6812133789062	938.7783813476562	-447.7984008789062	622.9275512695312	924.1870727539062	-404.4943542480469	611.996337890625	1079.124633789062	-344.2780456542969	564.7626953125	787.0551147460938	-475.3333740234375	559.5665893554688	847.0446166992188	-478.7773132324219	620.9339599609375	839.9373168945312	-431.3433837890625	274.4093017578125	1667.258178710938	-412.585693359375	73.89474487304688	1633.329711914062	-445.9580383300781	182.8740692138672	1655.683349609375	-514.6502685546875	134.5236511230469	1643.972778320312	-306.1298828125	145.6821594238281	830.072021484375	-251.4143829345703	528.6376342773438	941.311279296875	-238.0469512939453	454.1202087402344	946.4761962890625	-344.2227172851562	210.0617218017578	878.9341430664062	-359.5987854003906	295.0725402832031	434.1372680664062	-286.7055969238281	221.6248474121094	571.3369750976562	-297.773193359375	417.9355163574219	46.92679977416992	-192.2527465820312	329.462890625	285.91796875	-273.167236328125	511.1408386230469	49.48686218261719	-412.2171325683594	526.626708984375	61.89914321899414	-336.4097595214844	420.4588012695312	41.03308486938477	-345.8364562988281	473.8666687011719	77.19266510009766	-146.7309112548828	641.0015258789062	572.7577514648438	-222.9311218261719	578.6334228515625	815.4349365234375	-268.9801940917969	705.7569580078125	321.9017944335938	137.6116790771484	680.7772827148438	471.1528930664062	-122.8955078125	691.7659301757812	124.8099136352539	47.92681121826172	646.1624755859375	178.6656341552734	67.27280426025391	746.2320556640625	206.7231903076172	87.05879974365234	650.7726440429688	367.7391357421875	168.7303466796875	
279	2.78	374.3930969238281	1018.125854492188	-139.8584899902344	237.8478851318359	979.9898071289062	-128.2247314453125	300.1614685058594	1094.147216796875	-166.7866516113281	236.0768585205078	1246.170288085938	-462.2847900390625	276.1680603027344	1211.088989257812	-164.7976226806641	248.5775756835938	1467.83056640625	-261.2845764160156	220.32177734375	1362.004516601562	-437.0860595703125	362.7545471191406	1366.427490234375	-202.7467346191406	161.0263061523438	1414.182983398438	-211.2767028808594	66.67819976806641	1421.839233398438	-302.1534118652344	-15.56395244598389	1295.779174804688	-265.9499816894531	-6.275006771087646	1072.230224609375	-271.8431396484375	58.82502365112305	1072.466918945312	-192.2100219726562	100.8049468994141	924.3706665039062	-391.0798950195312	67.02626800537109	876.3221435546875	-344.6186218261719	15.3756046295166	991.7810668945312	-308.6276245117188	155.4397125244141	781.6964111328125	-436.541259765625	99.70403289794922	810.0236206054688	-368.4953918457031	123.7554626464844	848.2556762695312	-425.1730651855469	397.1799926757812	1446.764892578125	-347.684814453125	480.6870422363281	1400.967651367188	-334.4754333496094	599.0523071289062	1135.846069335938	-338.29150390625	574.743408203125	1109.814819335938	-279.8612365722656	549.3505859375	937.1253051757812	-451.1452941894531	625.3658447265625	923.5925903320312	-408.8625183105469	614.9736938476562	1079.578735351562	-351.2778625488281	566.4152221679688	784.8657836914062	-475.8791198730469	560.7550659179688	844.6245727539062	-480.2957153320312	623.1865234375	838.815185546875	-433.9515380859375	274.8708801269531	1667.521240234375	-412.6561279296875	73.29104614257812	1634.341186523438	-439.2108459472656	180.0222320556641	1656.575927734375	-511.6497192382812	138.6399383544922	1644.357788085938	-301.5808715820312	150.3495635986328	830.5143432617188	-241.2576446533203	533.3628540039062	941.2193603515625	-252.6640777587891	452.6239624023438	945.0962524414062	-354.0745849609375	209.6802368164062	877.9007568359375	-355.4473571777344	298.4277648925781	434.0199584960938	-275.9849243164062	223.6836395263672	570.5523071289062	-285.3306579589844	429.5607299804688	47.13263320922852	-190.1002960205078	334.0531921386719	286.3091430664062	-264.0230712890625	503.9530944824219	51.56791305541992	-416.4844970703125	526.2073364257812	62.95357131958008	-342.3691711425781	419.9592895507812	40.9467887878418	-343.1516723632812	488.763427734375	77.96772003173828	-149.3177337646484	644.3281860351562	571.859619140625	-238.1373443603516	580.8782958984375	814.4278564453125	-284.4662780761719	729.462890625	320.2012634277344	118.5145263671875	689.6022338867188	470.4584350585938	-140.07177734375	709.4044189453125	124.1899490356445	27.57087135314941	665.0775756835938	177.9546966552734	50.05558013916016	766.2838745117188	205.1866455078125	64.99213409423828	676.5725708007812	366.1456909179688	152.8845977783203	
280	2.79	384.8569641113281	1019.342712402344	-146.0552673339844	249.1303863525391	981.7501220703125	-126.022102355957	309.0003662109375	1094.912719726562	-169.0898284912109	232.638427734375	1245.477416992188	-461.2702941894531	284.9584655761719	1211.029052734375	-166.126953125	254.1998443603516	1467.812377929688	-261.2081604003906	218.8565673828125	1361.5419921875	-435.8702087402344	369.8157043457031	1365.772705078125	-207.4009399414062	168.465576171875	1414.629150390625	-207.8080139160156	70.84764862060547	1422.371826171875	-295.0968627929688	-10.50902938842773	1296.638305664062	-256.0013732910156	-1.601167440414429	1072.957153320312	-262.74951171875	65.76245880126953	1072.896606445312	-185.0782318115234	102.8430252075195	926.284423828125	-386.2312622070312	70.23450469970703	877.8410034179688	-339.2961120605469	19.21186447143555	992.8284912109375	-300.8816223144531	156.8066558837891	784.110595703125	-433.828369140625	102.4779891967773	811.7767944335938	-364.5037536621094	125.3059234619141	850.5098266601562	-421.4320068359375	399.1665344238281	1446.581909179688	-353.1282348632812	483.1040954589844	1401.160766601562	-342.292724609375	602.052001953125	1136.358154296875	-345.9223937988281	579.1499633789062	1111.143310546875	-286.5992431640625	551.040283203125	935.379638671875	-454.3869018554688	627.89208984375	922.9383544921875	-413.3089294433594	617.9407348632812	1079.927734375	-358.3259582519531	568.1361694335938	782.629638671875	-476.281982421875	562.0831298828125	842.2566528320312	-481.7720642089844	625.5453491210938	837.6403198242188	-436.5674743652344	275.3061218261719	1667.480102539062	-412.68115234375	72.86593627929688	1635.015991210938	-432.2991943359375	177.2063446044922	1657.135131835938	-508.4340209960938	142.9460754394531	1644.455932617188	-297.0404663085938	155.5667114257812	830.6824340820312	-231.3412628173828	537.12109375	940.76708984375	-267.0977783203125	450.5168762207031	943.4554443359375	-363.4313354492188	209.8696136474609	876.6447143554688	-351.1280822753906	302.93017578125	433.8763122558594	-265.657470703125	226.9508972167969	569.7088012695312	-273.038818359375	441.5763854980469	47.28040313720703	-188.732666015625	339.640869140625	286.6849670410156	-255.2530364990234	496.8059387207031	53.29938507080078	-420.0302429199219	525.4876098632812	63.87178421020508	-348.1557006835938	419.7944641113281	40.87960433959961	-340.3259582519531	503.6599426269531	78.61389923095703	-152.8955383300781	646.7777099609375	570.5908203125	-253.1970977783203	582.1453857421875	813.0453491210938	-299.6970825195312	751.7103271484375	318.0827941894531	98.48558044433594	697.3228759765625	469.3406982421875	-157.3634643554688	725.5052490234375	123.4443130493164	6.154049396514893	682.6566772460938	176.9999694824219	31.81088256835938	784.70263671875	203.4211730957031	41.93196487426758	701.0816650390625	364.0636596679688	136.0337829589844	
